<svg width="354" height="711" viewBox="0 0 354 711" fill="none" xmlns="http://www.w3.org/2000/svg">
<path d="M178.017 480.046C178.017 480.046 194.173 513.746 193.017 536.546C191.402 568.39 158.325 576.889 154.517 608.546C148.744 656.546 188.517 705.046 188.517 705.046" stroke="white" stroke-width="16"/>
<path d="M344.517 177.046C328.313 4.04573 177.517 8.04578 177.517 8.04578C177.517 8.04578 26.017 0.545807 10.017 177.546C-5.98305 354.546 172.017 448.046 178.017 448.046C184.017 448.046 360.721 350.046 344.517 177.046Z" stroke="white" stroke-width="16"/>
<path d="M170.517 449.046C160.184 463.046 152.017 486.546 154.017 488.546C155.017 489.546 166.048 485.493 180.517 486.046C205.017 486.046 209.517 490.643 209.517 487.546C209.517 481.546 187.017 452.046 186.517 449.046H170.517Z" fill="white"/>
<path d="M51.2247 269.668C51.3857 271.962 48.5296 272.648 47.8223 270.459C41.329 250.368 31.3846 207.778 40.517 154.046C45.8798 122.492 67.9879 90.1257 72.2897 84.0576C72.7352 83.4292 73.4985 83.1381 74.255 83.2832L105.95 89.3616C107.497 89.6584 108.152 91.549 107.125 92.7443C99.6039 101.5 76.0671 130.974 61.517 172.546C49.0609 208.135 49.7771 249.043 51.2247 269.668Z" fill="white"/>
</svg>
